<svg width="32" height="33" viewBox="0 0 32 33" fill="none" xmlns="http://www.w3.org/2000/svg">
<mask id="mask0_774_11346" style="mask-type:alpha" maskUnits="userSpaceOnUse" x="0" y="0" width="32" height="33">
<rect y="0.273438" width="32" height="32" fill="#D9D9D9"/>
</mask>
<g mask="url(#mask0_774_11346)">
<path d="M7.8453 27.6068C7.53596 27.6068 7.2253 27.5158 6.9133 27.3338C6.6013 27.1518 6.37352 26.9308 6.22996 26.6708L3.40963 21.7351C3.26607 21.4751 3.18996 21.1643 3.1813 20.8028C3.17285 20.4415 3.24896 20.1308 3.40963 19.8708L11.5633 5.87613C11.724 5.61613 11.9561 5.39512 12.2596 5.21312C12.563 5.03112 12.8693 4.94012 13.1786 4.94012H18.82C19.1293 4.94012 19.4356 5.03112 19.739 5.21312C20.0425 5.39512 20.2746 5.61613 20.4353 5.87613L25.6813 14.8915C25.4266 14.8606 25.1766 14.8486 24.9313 14.8555C24.686 14.8623 24.4334 14.8846 24.1736 14.9221L19.1326 6.27346H12.866L4.3993 20.8068L7.53263 26.2735H17.989C18.0967 26.5281 18.2177 26.7623 18.352 26.9761C18.4862 27.1897 18.6447 27.3999 18.8276 27.6068H7.8453ZM10.0506 22.2735L9.46863 21.2401L15.3376 11.0171H16.661L20.002 16.8581C19.8293 17.0101 19.6631 17.1729 19.5033 17.3465C19.3433 17.52 19.1924 17.6931 19.0506 17.8658L15.9993 12.5401L11.1786 20.9401H17.5173C17.4471 21.1572 17.3945 21.3726 17.3596 21.5861C17.3245 21.7999 17.2984 22.029 17.2813 22.2735H10.0506ZM24.666 27.6068V23.6068H20.666V22.2735H24.666V18.2735H25.9993V22.2735H29.9993V23.6068H25.9993V27.6068H24.666Z" fill="#596780"/>
</g>
</svg>
