<svg width="22" height="24" viewBox="0 0 22 24" fill="none" xmlns="http://www.w3.org/2000/svg">
<path d="M16 18.6153C16.5556 18.6153 17.0278 18.4208 17.4167 18.0319C17.8056 17.643 18 17.1708 18 16.6153C18 16.0597 17.8056 15.5875 17.4167 15.1986C17.0278 14.8097 16.5556 14.6153 16 14.6153C15.4444 14.6153 14.9722 14.8097 14.5833 15.1986C14.1944 15.5875 14 16.0597 14 16.6153C14 17.1708 14.1944 17.643 14.5833 18.0319C14.9722 18.4208 15.4444 18.6153 16 18.6153ZM16 22.6153C16.706 22.6153 17.3436 22.4584 17.9127 22.1446C18.482 21.831 18.953 21.4076 19.3257 20.8743C18.8197 20.5683 18.2889 20.3375 17.7333 20.1819C17.1778 20.0264 16.6 19.9486 16 19.9486C15.4 19.9486 14.8222 20.0264 14.2667 20.1819C13.7111 20.3375 13.1803 20.5683 12.6743 20.8743C13.047 21.4076 13.518 21.831 14.0873 22.1446C14.6564 22.4584 15.294 22.6153 16 22.6153ZM9.33333 23.8973C6.65467 23.1024 4.42944 21.4797 2.65767 19.0293C0.885889 16.5788 0 13.8186 0 10.7486V3.53827L9.33333 0.0512695L18.6667 3.53827V11.0793C18.4667 11.0042 18.247 10.937 18.0077 10.8779C17.7683 10.819 17.5436 10.7648 17.3333 10.7153V4.45627L9.33333 1.48194L1.33333 4.45627V10.7486C1.33333 12.0666 1.52778 13.329 1.91667 14.5359C2.30556 15.7426 2.83544 16.8524 3.50633 17.8653C4.17722 18.8782 4.97089 19.7632 5.88733 20.5203C6.80356 21.2776 7.78044 21.8546 8.818 22.2513L8.895 22.2256C9.00256 22.4923 9.13667 22.7513 9.29733 23.0026C9.458 23.2537 9.64011 23.4896 9.84367 23.7103C9.753 23.7443 9.66789 23.7754 9.58833 23.8036C9.509 23.8318 9.424 23.863 9.33333 23.8973ZM16 23.9486C14.5144 23.9486 13.2542 23.431 12.2193 22.3959C11.1842 21.361 10.6667 20.1008 10.6667 18.6153C10.6667 17.1297 11.1842 15.8695 12.2193 14.8346C13.2542 13.7995 14.5144 13.2819 16 13.2819C17.4856 13.2819 18.7458 13.7995 19.7807 14.8346C20.8158 15.8695 21.3333 17.1297 21.3333 18.6153C21.3333 20.1008 20.8158 21.361 19.7807 22.3959C18.7458 23.431 17.4856 23.9486 16 23.9486Z" fill="#494E5B"/>
</svg>
