<svg width="32" height="33" viewBox="0 0 32 33" fill="none" xmlns="http://www.w3.org/2000/svg">
<mask id="mask0_780_2723" style="mask-type:alpha" maskUnits="userSpaceOnUse" x="0" y="0" width="32" height="33">
<rect y="0.273438" width="32" height="32" fill="#D9D9D9"/>
</mask>
<g mask="url(#mask0_780_2723)">
<path d="M9.89733 26.9401L16 20.8374L22.1027 26.9401H9.89733ZM4 22.1194V7.76075C4 7.14697 4.20556 6.63453 4.61667 6.22342C5.02778 5.81231 5.54022 5.60675 6.154 5.60675H25.846C26.4598 5.60675 26.9722 5.81231 27.3833 6.22342C27.7944 6.63453 28 7.14697 28 7.76075V22.1194C28 22.7161 27.7902 23.2243 27.3707 23.6441C26.9509 24.0636 26.4427 24.2734 25.846 24.2734H22.6667V22.9401H25.846C26.0513 22.9401 26.2394 22.8546 26.4103 22.6838C26.5812 22.5129 26.6667 22.3248 26.6667 22.1194V7.76075C26.6667 7.55542 26.5812 7.36731 26.4103 7.19642C26.2394 7.02553 26.0513 6.94008 25.846 6.94008H6.154C5.94867 6.94008 5.76056 7.02553 5.58967 7.19642C5.41878 7.36731 5.33333 7.55542 5.33333 7.76075V22.1194C5.33333 22.3248 5.41878 22.5129 5.58967 22.6838C5.76056 22.8546 5.94867 22.9401 6.154 22.9401H9.33333V24.2734H6.154C5.55733 24.2734 5.04911 24.0636 4.62933 23.6441C4.20978 23.2243 4 22.7161 4 22.1194Z" fill="#596780"/>
</g>
</svg>
