<svg width="32" height="33" viewBox="0 0 32 33" fill="none" xmlns="http://www.w3.org/2000/svg">
<mask id="mask0_780_2719" style="mask-type:alpha" maskUnits="userSpaceOnUse" x="0" y="0" width="32" height="33">
<rect y="0.273438" width="32" height="32" fill="#D9D9D9"/>
</mask>
<g mask="url(#mask0_780_2719)">
<path d="M18.0283 15.0067L13.3103 10.2887L14.2617 9.37073L18.0283 13.1374L25.595 5.60406L26.5127 6.52207L18.0283 15.0067ZM9.33333 25.1451L19.4207 28.0887L27.405 25.6221C27.3794 25.217 27.2569 24.9251 27.0373 24.7464C26.8176 24.5677 26.5743 24.4784 26.3077 24.4784H19.9847C19.4189 24.4784 18.9069 24.4562 18.4487 24.4117C17.9907 24.3673 17.5214 24.2614 17.041 24.0941L14.1207 23.1374L14.5717 21.8194L17.2717 22.7964C17.7008 22.9588 18.188 23.0563 18.7333 23.0887C19.2787 23.1212 20.0257 23.14 20.9743 23.1451C20.9743 22.7297 20.8979 22.3938 20.745 22.1374C20.5919 21.881 20.3727 21.7024 20.0873 21.6017L12.4153 18.7861C12.364 18.7692 12.317 18.7564 12.2743 18.7477C12.2317 18.7393 12.1847 18.7351 12.1333 18.7351H9.33333V25.1451ZM4 28.2734V17.4017H12.1077C12.229 17.4017 12.3547 17.4141 12.4847 17.4387C12.6144 17.4636 12.7376 17.4983 12.854 17.5427L20.559 20.3657C21.0359 20.5468 21.4466 20.8725 21.791 21.3427C22.1354 21.8127 22.3077 22.4135 22.3077 23.1451H26.3077C27.111 23.1451 27.7264 23.3964 28.154 23.8991C28.5813 24.4015 28.795 25.0391 28.795 25.8117V26.6324L19.4873 29.5041L9.33333 26.5451V28.2734H4ZM5.33333 26.9401H8V18.7351H5.33333V26.9401Z" fill="#596780"/>
</g>
</svg>
