<svg width="33" height="33" viewBox="0 0 33 33" fill="none" xmlns="http://www.w3.org/2000/svg">
<mask id="mask0_1010_925" style="mask-type:alpha" maskUnits="userSpaceOnUse" x="0" y="0" width="33" height="33">
<rect x="0.5" y="0.5" width="32" height="32" fill="#D9D9D9"/>
</mask>
<g mask="url(#mask0_1010_925)">
<path d="M16.4997 21.3589L21.3587 16.4999L16.4997 11.6409L15.1073 13.0333L17.574 15.4999H11.4997V17.4999H17.574L15.1073 19.9666L16.4997 21.3589ZM16.502 29.1666C14.75 29.1666 13.1032 28.8341 11.5617 28.1693C10.0201 27.5044 8.67923 26.602 7.53901 25.4623C6.39879 24.3225 5.49601 22.9821 4.83067 21.4413C4.16556 19.9004 3.83301 18.254 3.83301 16.5023C3.83301 14.7503 4.16545 13.1035 4.83034 11.5619C5.49523 10.0204 6.39756 8.67947 7.53734 7.53925C8.67712 6.39903 10.0175 5.49625 11.5583 4.83092C13.0992 4.16581 14.7456 3.83325 16.4973 3.83325C18.2493 3.83325 19.8961 4.1657 21.4377 4.83058C22.9792 5.49547 24.3201 6.39781 25.4603 7.53759C26.6006 8.67736 27.5033 10.0177 28.1687 11.5586C28.8338 13.0995 29.1663 14.7458 29.1663 16.4976C29.1663 18.2496 28.8339 19.8964 28.169 21.4379C27.5041 22.9795 26.6018 24.3204 25.462 25.4606C24.3222 26.6008 22.9819 27.5036 21.441 28.1689C19.9001 28.834 18.2538 29.1666 16.502 29.1666ZM16.4997 27.1666C19.4775 27.1666 21.9997 26.1333 24.0663 24.0666C26.133 21.9999 27.1663 19.4777 27.1663 16.4999C27.1663 13.5221 26.133 10.9999 24.0663 8.93325C21.9997 6.86659 19.4775 5.83325 16.4997 5.83325C13.5219 5.83325 10.9997 6.86659 8.93301 8.93325C6.86634 10.9999 5.83301 13.5221 5.83301 16.4999C5.83301 19.4777 6.86634 21.9999 8.93301 24.0666C10.9997 26.1333 13.5219 27.1666 16.4997 27.1666Z" fill="#596780"/>
</g>
</svg>
