<svg width="32" height="32" viewBox="0 0 32 32" fill="none" xmlns="http://www.w3.org/2000/svg">
<mask id="mask0_771_10733" style="mask-type:alpha" maskUnits="userSpaceOnUse" x="0" y="0" width="32" height="32">
<rect width="32" height="32" fill="#D9D9D9"/>
</mask>
<g mask="url(#mask0_771_10733)">
<path d="M13.2309 22.0002H18.0002V20.6668H13.2309V22.0002ZM13.2309 16.6668H22.0002V15.3335H13.2309V16.6668ZM10.0002 11.3335H22.0002V10.0002H10.0002V11.3335ZM9.62858 28.0002C8.06103 28.0002 6.72469 27.4518 5.61958 26.3552C4.51447 25.2587 3.96191 23.9267 3.96191 22.3592C3.96191 21.1438 4.30247 20.0617 4.98358 19.1128C5.66469 18.1642 6.53858 17.4856 7.60525 17.0772H4.00025V15.7438H10.0516V21.7952H8.71825V18.1002C7.72514 18.3122 6.90636 18.8113 6.26191 19.5975C5.61747 20.3839 5.29525 21.2959 5.29525 22.3335C5.29525 23.5437 5.71614 24.5685 6.55791 25.4078C7.39991 26.2472 8.42347 26.6668 9.62858 26.6668V28.0002ZM13.2309 26.6668V25.3335H24.5129C24.7182 25.3335 24.9064 25.2481 25.0772 25.0772C25.2481 24.9063 25.3336 24.7182 25.3336 24.5128V7.4875C25.3336 7.28216 25.2481 7.09405 25.0772 6.92316C24.9064 6.75227 24.7182 6.66683 24.5129 6.66683H7.48758C7.28225 6.66683 7.09414 6.75227 6.92325 6.92316C6.75236 7.09405 6.66691 7.28216 6.66691 7.4875V12.5642H5.33358V7.4875C5.33358 6.87372 5.53914 6.36127 5.95025 5.95016C6.36136 5.53905 6.8738 5.3335 7.48758 5.3335H24.5129C25.1267 5.3335 25.6391 5.53905 26.0503 5.95016C26.4614 6.36127 26.6669 6.87372 26.6669 7.4875V24.5128C26.6669 25.1266 26.4614 25.6391 26.0503 26.0502C25.6391 26.4613 25.1267 26.6668 24.5129 26.6668H13.2309Z" fill="#494E5B"/>
</g>
</svg>
