<svg width="32" height="33" viewBox="0 0 32 33" fill="none" xmlns="http://www.w3.org/2000/svg">
<mask id="mask0_780_2695" style="mask-type:alpha" maskUnits="userSpaceOnUse" x="0" y="0" width="32" height="33">
<rect y="0.273438" width="32" height="32" fill="#D9D9D9"/>
</mask>
<g mask="url(#mask0_780_2695)">
<path d="M16.0923 25.0428L19.3027 21.8401L16.0923 18.6374L15.2563 19.4734L17.1 21.3171C16.0676 21.3222 15.15 21.2008 14.3473 20.9528C13.5449 20.705 12.9018 20.3392 12.418 19.8554C11.9222 19.3597 11.5491 18.7973 11.2987 18.1684C11.0482 17.5393 10.923 16.9102 10.923 16.2811C10.923 15.9033 10.9644 15.5255 11.0473 15.1478C11.1302 14.77 11.252 14.4119 11.4127 14.0734L10.5103 13.2734C10.2521 13.7434 10.0598 14.2304 9.93333 14.7344C9.80689 15.2384 9.74367 15.7514 9.74367 16.2734C9.74367 17.0657 9.89744 17.8474 10.205 18.6188C10.5128 19.3903 10.9676 20.0812 11.5693 20.6914C12.1709 21.3017 12.9614 21.7551 13.941 22.0518C14.9206 22.3482 15.9266 22.499 16.959 22.5041L15.2563 24.2068L16.0923 25.0428ZM21.5153 19.2734C21.7736 18.8034 21.9659 18.3164 22.0923 17.8124C22.2188 17.3084 22.282 16.7954 22.282 16.2734C22.282 15.4839 22.1294 14.6995 21.8243 13.9204C21.5192 13.1413 21.0616 12.4504 20.4513 11.8478C19.8582 11.2375 19.0689 10.7854 18.0833 10.4914C17.098 10.1974 16.0924 10.0504 15.0667 10.0504L16.7693 8.3401L15.9333 7.5041L12.723 10.7068L15.9333 13.9094L16.7693 13.0734L14.918 11.2221C15.9453 11.2221 16.8641 11.3473 17.6743 11.5978C18.4846 11.8482 19.1316 12.216 19.6153 12.7011C20.0989 13.186 20.4677 13.7437 20.7217 14.3741C20.9757 15.0048 21.1027 15.6353 21.1027 16.2658C21.1027 16.6435 21.0612 17.0213 20.9783 17.3991C20.8954 17.7769 20.7736 18.135 20.6127 18.4734L21.5153 19.2734ZM16.0043 28.2734C14.345 28.2734 12.7849 27.9586 11.324 27.3288C9.86333 26.699 8.59267 25.8443 7.512 24.7648C6.43133 23.6852 5.57589 22.4157 4.94567 20.9561C4.31522 19.4968 4 17.9373 4 16.2778C4 14.6184 4.31489 13.0583 4.94467 11.5974C5.57444 10.1368 6.42911 8.8661 7.50867 7.78544C8.58822 6.70477 9.85778 5.84933 11.3173 5.2191C12.7767 4.58866 14.3361 4.27344 15.9957 4.27344C17.655 4.27344 19.2151 4.58833 20.676 5.21811C22.1367 5.84788 23.4073 6.70255 24.488 7.7821C25.5687 8.86166 26.4241 10.1312 27.0543 11.5908C27.6848 13.0501 28 14.6095 28 16.2691C28 17.9284 27.6851 19.4885 27.0553 20.9494C26.4256 22.4101 25.5709 23.6808 24.4913 24.7614C23.4118 25.8421 22.1422 26.6975 20.6827 27.3278C19.2233 27.9582 17.6639 28.2734 16.0043 28.2734ZM16 26.9401C18.9778 26.9401 21.5 25.9068 23.5667 23.8401C25.6333 21.7734 26.6667 19.2512 26.6667 16.2734C26.6667 13.2957 25.6333 10.7734 23.5667 8.70677C21.5 6.6401 18.9778 5.60677 16 5.60677C13.0222 5.60677 10.5 6.6401 8.43333 8.70677C6.36667 10.7734 5.33333 13.2957 5.33333 16.2734C5.33333 19.2512 6.36667 21.7734 8.43333 23.8401C10.5 25.9068 13.0222 26.9401 16 26.9401Z" fill="#596780"/>
</g>
</svg>
