<svg width="32" height="33" viewBox="0 0 32 33" fill="none" xmlns="http://www.w3.org/2000/svg">
<mask id="mask0_1010_803" style="mask-type:alpha" maskUnits="userSpaceOnUse" x="0" y="0" width="32" height="33">
<rect y="0.712158" width="32" height="32" fill="#D9D9D9"/>
</mask>
<g mask="url(#mask0_1010_803)">
<path d="M14.1073 22.3837L23.0713 13.4197L21.6663 12.0147L14.1073 19.5737L10.3073 15.7737L8.90234 17.1787L14.1073 22.3837ZM16.002 29.3787C14.25 29.3787 12.6032 29.0463 11.0617 28.3814C9.52012 27.7165 8.17923 26.8142 7.03901 25.6744C5.89879 24.5346 4.99601 23.1943 4.33067 21.6534C3.66556 20.1125 3.33301 18.4662 3.33301 16.7144C3.33301 14.9624 3.66545 13.3156 4.33034 11.7741C4.99523 10.2325 5.89756 8.89163 7.03734 7.75141C8.17712 6.61119 9.51745 5.70841 11.0583 5.04308C12.5992 4.37797 14.2456 4.04541 15.9973 4.04541C17.7493 4.04541 19.3961 4.37785 20.9377 5.04274C22.4792 5.70763 23.8201 6.60997 24.9603 7.74974C26.1006 8.88952 27.0033 10.2299 27.6687 11.7707C28.3338 13.3116 28.6663 14.958 28.6663 16.7097C28.6663 18.4617 28.3339 20.1085 27.669 21.6501C27.0041 23.1916 26.1018 24.5325 24.962 25.6727C23.8222 26.813 22.4819 27.7157 20.941 28.3811C19.4001 29.0462 17.7538 29.3787 16.002 29.3787ZM15.9997 27.3787C18.9775 27.3787 21.4997 26.3454 23.5663 24.2787C25.633 22.2121 26.6663 19.6899 26.6663 16.7121C26.6663 13.7343 25.633 11.2121 23.5663 9.14541C21.4997 7.07874 18.9775 6.04541 15.9997 6.04541C13.0219 6.04541 10.4997 7.07874 8.43301 9.14541C6.36634 11.2121 5.33301 13.7343 5.33301 16.7121C5.33301 19.6899 6.36634 22.2121 8.43301 24.2787C10.4997 26.3454 13.0219 27.3787 15.9997 27.3787Z" fill="#596780"/>
</g>
</svg>
