<svg width="32" height="33" viewBox="0 0 32 33" fill="none" xmlns="http://www.w3.org/2000/svg">
<mask id="mask0_780_2711" style="mask-type:alpha" maskUnits="userSpaceOnUse" x="0" y="0" width="32" height="33">
<rect y="0.273438" width="32" height="32" fill="#D9D9D9"/>
</mask>
<g mask="url(#mask0_780_2711)">
<path d="M17.872 25.6068H8.66699C7.00366 25.6068 5.58788 25.0283 4.41966 23.8715C3.25121 22.7148 2.66699 21.3009 2.66699 19.6298C2.66699 18.0505 3.21055 16.6812 4.29766 15.5221C5.38499 14.3632 6.66199 13.7401 8.12866 13.6528C8.42777 11.711 9.32088 10.1068 10.808 8.84012C12.2951 7.57346 14.0259 6.94012 16.0003 6.94012C17.9114 6.94012 19.5811 7.52601 21.0093 8.69779C22.4375 9.86957 23.3584 11.3435 23.772 13.1195C23.5447 13.1366 23.3254 13.1696 23.1143 13.2185C22.9032 13.2671 22.6917 13.329 22.4797 13.4041C22.1481 11.9426 21.3789 10.7221 20.172 9.74279C18.9653 8.76324 17.5748 8.27346 16.0003 8.27346C14.1559 8.27346 12.5837 8.92346 11.2837 10.2235C9.98366 11.5235 9.33366 13.0957 9.33366 14.9401H8.61566C7.3781 14.9401 6.29944 15.3957 5.37966 16.3068C4.4601 17.2179 4.00033 18.3179 4.00033 19.6068C4.00033 20.8957 4.45588 21.9957 5.36699 22.9068C6.2781 23.8179 7.3781 24.2735 8.66699 24.2735H17.872V25.6068ZM22.1287 25.6068C21.8235 25.6068 21.5678 25.5036 21.3613 25.2971C21.1549 25.0907 21.0517 24.8349 21.0517 24.5298V20.9145C21.0517 20.6051 21.1709 20.3526 21.4093 20.1568C21.6478 19.961 21.9302 19.8631 22.2567 19.8631V18.5298C22.2567 17.9022 22.4804 17.365 22.928 16.9181C23.3755 16.4712 23.9137 16.2478 24.5423 16.2478C25.1708 16.2478 25.7033 16.4712 26.14 16.9181C26.5769 17.365 26.7953 17.9022 26.7953 18.5298V19.8631C27.1218 19.8631 27.4042 19.961 27.6427 20.1568C27.8811 20.3526 28.0003 20.6051 28.0003 20.9145V24.5298C28.0003 24.8349 27.8971 25.0907 27.6907 25.2971C27.4842 25.5036 27.2284 25.6068 26.9233 25.6068H22.1287ZM23.2823 19.8631H25.7697V18.5298C25.7697 18.152 25.659 17.8482 25.4377 17.6185C25.2161 17.3885 24.9164 17.2735 24.5387 17.2735C24.1609 17.2735 23.8571 17.3885 23.6273 17.6185C23.3973 17.8482 23.2823 18.152 23.2823 18.5298V19.8631Z" fill="#596780"/>
</g>
</svg>
