<svg width="32" height="33" viewBox="0 0 32 33" fill="none" xmlns="http://www.w3.org/2000/svg">
<mask id="mask0_774_11351" style="mask-type:alpha" maskUnits="userSpaceOnUse" x="0" y="0" width="32" height="33">
<rect y="0.273438" width="32" height="32" fill="#D9D9D9"/>
</mask>
<g mask="url(#mask0_774_11351)">
<path d="M24.5127 24.2735H11.4873C10.8736 24.2735 10.3611 24.0679 9.95 23.6568C9.53889 23.2457 9.33333 22.7332 9.33333 22.1195V5.09412C9.33333 4.48035 9.53889 3.9679 9.95 3.55679C10.3611 3.14568 10.8736 2.94012 11.4873 2.94012H20.6667L26.6667 8.94012V22.1195C26.6667 22.7332 26.4611 23.2457 26.05 23.6568C25.6389 24.0679 25.1264 24.2735 24.5127 24.2735ZM20 9.60679V4.27346H11.4873C11.282 4.27346 11.0939 4.3589 10.923 4.52979C10.7521 4.70068 10.6667 4.88879 10.6667 5.09412V22.1195C10.6667 22.3248 10.7521 22.5129 10.923 22.6838C11.0939 22.8547 11.282 22.9401 11.4873 22.9401H24.5127C24.718 22.9401 24.9061 22.8547 25.077 22.6838C25.2479 22.5129 25.3333 22.3248 25.3333 22.1195V9.60679H20ZM6.154 29.6068C5.54022 29.6068 5.02778 29.4012 4.61667 28.9901C4.20556 28.579 4 28.0666 4 27.4528V10.9401H5.33333V27.4528C5.33333 27.6581 5.41878 27.8462 5.58967 28.0171C5.76056 28.188 5.94867 28.2735 6.154 28.2735H18.6667V29.6068H6.154Z" fill="#596780"/>
</g>
</svg>
