<svg width="32" height="33" viewBox="0 0 32 33" fill="none" xmlns="http://www.w3.org/2000/svg">
<mask id="mask0_774_11356" style="mask-type:alpha" maskUnits="userSpaceOnUse" x="0" y="0" width="32" height="33">
<rect y="0.273438" width="32" height="32" fill="#D9D9D9"/>
</mask>
<g mask="url(#mask0_774_11356)">
<path d="M6.154 25.6068C5.54022 25.6068 5.02778 25.4012 4.61667 24.9901C4.20556 24.579 4 24.0666 4 23.4528V9.09412C4 8.48035 4.20556 7.9679 4.61667 7.55679C5.02778 7.14568 5.54022 6.94012 6.154 6.94012H12.795L15.4617 9.60679H25.846C26.4598 9.60679 26.9722 9.81235 27.3833 10.2235C27.7944 10.6346 28 11.147 28 11.7608V17.7861H26.6667V11.7608C26.6667 11.5215 26.5898 11.3248 26.436 11.1708C26.282 11.017 26.0853 10.9401 25.846 10.9401H14.9257L12.259 8.27346H6.154C5.91467 8.27346 5.718 8.35035 5.564 8.50412C5.41022 8.65812 5.33333 8.85479 5.33333 9.09412V23.4528C5.33333 23.6921 5.41022 23.8888 5.564 24.0428C5.718 24.1966 5.91467 24.2735 6.154 24.2735H13.436V25.6068H6.154ZM20.4667 28.7915L16.6153 24.9401L20.4667 21.0888L21.3847 22.0401L18.4847 24.9401L21.3847 27.8401L20.4667 28.7915ZM25.482 28.7915L24.564 27.8401L27.464 24.9401L24.564 22.0401L25.482 21.0888L29.3333 24.9401L25.482 28.7915Z" fill="#596780"/>
</g>
</svg>
