<svg width="24" height="25" viewBox="0 0 24 25" fill="none" xmlns="http://www.w3.org/2000/svg">
<mask id="mask0_778_15573" style="mask-type:alpha" maskUnits="userSpaceOnUse" x="0" y="0" width="24" height="25">
<rect y="0.273438" width="24" height="24" fill="#D9D9D9"/>
</mask>
<g mask="url(#mask0_778_15573)">
<path d="M12 1.86969L20.7808 7.09644C21.0037 7.24144 21.1794 7.43219 21.3078 7.66869C21.4359 7.90519 21.5 8.15677 21.5 8.42344V18.9657C21.5 19.4709 21.325 19.8984 20.975 20.2484C20.625 20.5984 20.1974 20.7734 19.6923 20.7734H4.30775C3.80258 20.7734 3.375 20.5984 3.025 20.2484C2.675 19.8984 2.5 19.4709 2.5 18.9657V8.42344C2.5 8.15677 2.56408 7.90519 2.69225 7.66869C2.82058 7.43219 2.99625 7.24144 3.21925 7.09644L12 1.86969ZM12 12.9234L19.8 8.27344L12 3.62344L4.2 8.27344L12 12.9234ZM12 14.6772L4 9.89644V18.9657C4 19.0555 4.02883 19.1293 4.0865 19.1869C4.14417 19.2446 4.21792 19.2734 4.30775 19.2734H19.6923C19.7821 19.2734 19.8558 19.2446 19.9135 19.1869C19.9712 19.1293 20 19.0555 20 18.9657V9.89644L12 14.6772Z" fill="#F7FAFC"/>
</g>
</svg>
