<svg width="32" height="33" viewBox="0 0 32 33" fill="none" xmlns="http://www.w3.org/2000/svg">
<mask id="mask0_780_2699" style="mask-type:alpha" maskUnits="userSpaceOnUse" x="0" y="0" width="32" height="33">
<rect y="0.273438" width="32" height="32" fill="#D9D9D9"/>
</mask>
<g mask="url(#mask0_780_2699)">
<path d="M16.0003 28.2221C13.3217 27.4272 11.0964 25.8045 9.32466 23.3541C7.55288 20.9037 6.66699 18.1434 6.66699 15.0734V7.8631L16.0003 4.3761L25.3337 7.8631V15.0734C25.3337 16.5692 25.1012 18.0354 24.6363 19.4721C24.1712 20.909 23.4498 22.2855 22.472 23.6018L18.3593 19.4888C18.0278 19.7503 17.6598 19.9465 17.2553 20.0774C16.8511 20.2081 16.4328 20.2734 16.0003 20.2734C14.9003 20.2734 13.9587 19.8818 13.1753 19.0984C12.392 18.3151 12.0003 17.3734 12.0003 16.2734C12.0003 15.1734 12.392 14.2318 13.1753 13.4484C13.9587 12.6651 14.9003 12.2734 16.0003 12.2734C17.1003 12.2734 18.042 12.6651 18.8253 13.4484C19.6087 14.2318 20.0003 15.1734 20.0003 16.2734C20.0003 16.6848 19.9392 17.082 19.817 17.4651C19.6948 17.8484 19.5285 18.2084 19.3183 18.5451L22.2927 21.5194C22.8055 20.5572 23.2183 19.5461 23.531 18.4861C23.8439 17.4263 24.0003 16.2888 24.0003 15.0734V8.77343L16.0003 5.7991L8.00033 8.77343V15.0734C8.00033 17.7623 8.75588 20.2068 10.267 22.4068C11.7781 24.6068 13.6892 26.0734 16.0003 26.8068C16.5781 26.629 17.1281 26.4012 17.6503 26.1234C18.1725 25.8457 18.6892 25.5179 19.2003 25.1401L20.0413 26.1351C19.3764 26.6153 18.7315 27.0221 18.1067 27.3554C17.482 27.6888 16.7799 27.9777 16.0003 28.2221ZM16.0003 18.9401C16.7337 18.9401 17.3614 18.679 17.8837 18.1568C18.4059 17.6345 18.667 17.0068 18.667 16.2734C18.667 15.5401 18.4059 14.9123 17.8837 14.3901C17.3614 13.8679 16.7337 13.6068 16.0003 13.6068C15.267 13.6068 14.6392 13.8679 14.117 14.3901C13.5948 14.9123 13.3337 15.5401 13.3337 16.2734C13.3337 17.0068 13.5948 17.6345 14.117 18.1568C14.6392 18.679 15.267 18.9401 16.0003 18.9401Z" fill="#596780"/>
</g>
</svg>
