<svg width="32" height="33" viewBox="0 0 32 33" fill="none" xmlns="http://www.w3.org/2000/svg">
<mask id="mask0_780_2691" style="mask-type:alpha" maskUnits="userSpaceOnUse" x="0" y="0" width="32" height="33">
<rect y="0.273438" width="32" height="32" fill="#D9D9D9"/>
</mask>
<g mask="url(#mask0_780_2691)">
<path d="M5.48756 26.0685V24.7351H9.61556L8.21056 23.3451C7.17456 22.34 6.42756 21.2375 5.96956 20.0375C5.51134 18.8375 5.28223 17.6221 5.28223 16.3915C5.28223 14.2495 5.89289 12.3115 7.11423 10.5775C8.33556 8.84323 9.94711 7.60512 11.9489 6.86312V8.27845C10.3318 8.9589 9.03867 10.0363 8.06956 11.5108C7.10023 12.985 6.61556 14.6119 6.61556 16.3915C6.61556 17.4768 6.82156 18.5302 7.23356 19.5518C7.64556 20.5731 8.28578 21.5179 9.15423 22.3861L10.5129 23.7451V19.7095H11.8462V26.0685H5.48756ZM26.5412 14.5041H25.2002C25.0378 13.7263 24.7647 12.9691 24.3809 12.2325C23.9971 11.4958 23.4856 10.8052 22.8462 10.1608L21.4876 8.80179V12.8375H20.1542V6.47845H26.5129V7.81179H22.3849L23.7899 9.20179C24.5643 9.99823 25.1747 10.8418 25.6209 11.7325C26.0669 12.6231 26.3737 13.547 26.5412 14.5041ZM22.6669 28.0171L22.5232 26.8631C22.0172 26.752 21.6006 26.5969 21.2732 26.3978C20.9459 26.1987 20.6343 25.9505 20.3386 25.6531L19.2772 26.1248L18.5079 24.9861L19.4516 24.2171C19.2873 23.7351 19.2052 23.2752 19.2052 22.8375C19.2052 22.3999 19.2873 21.9401 19.4516 21.4581L18.5079 20.6888L19.2772 19.5505L20.3386 20.0221C20.6343 19.7248 20.9459 19.4766 21.2732 19.2775C21.6006 19.0781 22.0172 18.9229 22.5232 18.8118L22.6669 17.6581H24.0002L24.1439 18.8118C24.6499 18.9229 25.0666 19.0793 25.3939 19.2811C25.7212 19.4829 26.0328 19.735 26.3286 20.0375L27.3899 19.5505L28.1592 20.7041L27.2156 21.4735C27.3798 21.9452 27.4619 22.4025 27.4619 22.8451C27.4619 23.288 27.3798 23.7453 27.2156 24.2171L28.1592 24.9861L27.3899 26.1248L26.3286 25.6531C26.0328 25.9505 25.7212 26.1987 25.3939 26.3978C25.0666 26.5969 24.6499 26.752 24.1439 26.8631L24.0002 28.0171H22.6669ZM23.3336 25.7095C24.1182 25.7095 24.793 25.4269 25.3579 24.8618C25.9228 24.2969 26.2052 23.6221 26.2052 22.8375C26.2052 22.053 25.9228 21.3782 25.3579 20.8131C24.793 20.2482 24.1182 19.9658 23.3336 19.9658C22.5489 19.9658 21.8741 20.2482 21.3092 20.8131C20.7443 21.3782 20.4619 22.053 20.4619 22.8375C20.4619 23.6221 20.7443 24.2969 21.3092 24.8618C21.8741 25.4269 22.5489 25.7095 23.3336 25.7095Z" fill="#596780"/>
</g>
</svg>
