<svg width="120" height="40" viewBox="0 0 120 40" fill="none" xmlns="http://www.w3.org/2000/svg">
<path d="M20.001 0C31.0471 7.21533e-05 40.002 8.95435 40.002 20C40.002 31.0457 31.0471 39.9999 20.001 40C8.95482 40 0 31.0457 0 20C0 8.9543 8.95482 0 20.001 0ZM34.4229 13.4854C33.2324 13.4854 32.1907 13.7518 31.2979 14.2842C30.4049 14.8167 29.7113 15.5923 29.2178 16.6104C28.7243 17.6284 28.4776 18.8657 28.4775 20.3223C28.4775 21.7865 28.7477 23.0123 29.2881 23.999C29.8364 24.9858 30.5931 25.7302 31.5566 26.2314C32.5279 26.7247 33.6521 26.9717 34.9287 26.9717C35.8685 26.9717 36.6751 26.9007 37.3486 26.7598C38.0222 26.6188 38.3929 26.4235 39.043 26.1182L39.1992 25.5889L39.3438 25.0723L39.4326 24.7197L39.5527 24.2002L39.6328 23.7998C38.9278 24.1131 37.9441 24.399 37.2783 24.5635C36.6204 24.7201 35.8761 24.7979 35.0459 24.7979C33.8789 24.7978 32.9704 24.4575 32.3203 23.7764C31.6781 23.0951 31.341 22.1239 31.3096 20.8633H39.9746L39.9922 20.3652V19.4805C39.9701 18.2805 39.7697 17.1115 39.3232 16.2344C38.8767 15.3573 38.2376 14.6799 37.4072 14.2021C36.577 13.7246 35.582 13.4854 34.4229 13.4854ZM20.1855 13.4404C18.6833 13.4404 17.4741 13.7414 16.5586 14.3438C15.651 14.9384 15.1964 15.8109 15.1963 16.9609C15.1963 17.6885 15.3414 18.2874 15.6309 18.7568C15.9204 19.2184 16.3469 19.6138 16.9102 19.9424C17.4736 20.271 18.1666 20.6001 18.9883 20.9287C19.8254 21.2651 20.4593 21.5543 20.8896 21.7969C21.3279 22.0316 21.6247 22.2633 21.7812 22.4902C21.9455 22.7093 22.0283 22.9596 22.0283 23.2412C22.0283 23.7184 21.8287 24.1021 21.4297 24.3916C21.0306 24.6733 20.3765 24.8135 19.4688 24.8135C18.7803 24.8134 18.0489 24.7083 17.2744 24.4971C16.5075 24.2858 15.8145 24.0356 15.1963 23.7461V26.1289C15.7752 26.3949 16.3897 26.5896 17.0391 26.7148C17.6963 26.8479 18.4791 26.915 19.3867 26.915C20.537 26.915 21.5075 26.7661 22.2979 26.4688C23.0959 26.1636 23.7024 25.7176 24.1172 25.1309C24.5319 24.544 24.7393 23.8236 24.7393 22.9707C24.7392 22.2275 24.5874 21.6208 24.2822 21.1514C23.977 20.6819 23.538 20.2866 22.9668 19.9658C22.4035 19.6373 21.7344 19.3246 20.96 19.0273C20.1698 18.7144 19.5515 18.4525 19.1055 18.2412C18.6673 18.03 18.3577 17.8187 18.1777 17.6074C17.9978 17.3961 17.9082 17.1372 17.9082 16.832C17.9083 16.4253 18.0922 16.1126 18.46 15.8936C18.8355 15.6745 19.379 15.5645 20.0908 15.5645C20.7011 15.5645 21.2999 15.6512 21.8867 15.8232C22.4814 15.9875 23.0724 16.1989 23.6592 16.457L24.5283 14.3789C23.8475 14.0737 23.1506 13.843 22.4385 13.6865C21.7344 13.5223 20.9834 13.4405 20.1855 13.4404ZM34.4229 15.5645C35.073 15.5645 35.6063 15.7064 36.0215 15.9883C36.4441 16.2701 36.7573 16.6613 36.9609 17.1621C37.1724 17.6633 37.2822 18.2396 37.29 18.8896H31.3682C31.4622 17.8011 31.776 16.975 32.3086 16.4111C32.849 15.8474 33.5535 15.5645 34.4229 15.5645Z" fill="#102E7A"/>
<path d="M118.618 13.4481C118.837 13.4481 119.075 13.4598 119.334 13.4833C119.592 13.5067 119.815 13.538 120.003 13.5772L119.744 16.1594C119.58 16.1125 119.377 16.0773 119.134 16.0538C118.899 16.0303 118.688 16.0186 118.5 16.0186C118.007 16.0186 117.538 16.1007 117.092 16.2651C116.646 16.4216 116.25 16.6641 115.906 16.9928C115.562 17.3136 115.292 17.7166 115.096 18.2018C114.9 18.6869 114.803 19.2503 114.803 19.892V26.688H112.032V13.6945H114.192L114.568 15.9834H114.697C114.955 15.5217 115.276 15.0991 115.66 14.7157C116.043 14.3323 116.481 14.0271 116.974 13.8002C117.475 13.5654 118.023 13.4481 118.618 13.4481Z" fill="#102E7A"/>
<path d="M102.767 13.4481C103.925 13.4481 104.919 13.6867 105.748 14.164C106.578 14.6414 107.216 15.3182 107.662 16.1946C108.108 17.071 108.331 18.1196 108.331 19.3403V20.8192H99.6563C99.6876 22.0791 100.024 23.0494 100.666 23.7301C101.315 24.4109 102.223 24.7513 103.389 24.7513C104.218 24.7513 104.962 24.673 105.619 24.5165C106.284 24.3522 106.969 24.1136 107.673 23.8006V26.0424C107.024 26.3476 106.363 26.5706 105.69 26.7115C105.017 26.8523 104.211 26.9227 103.272 26.9227C101.996 26.9227 100.873 26.6763 99.9028 26.1833C98.9402 25.6825 98.1851 24.9391 97.6373 23.9531C97.0974 22.9672 96.8274 21.7426 96.8274 20.2793C96.8274 18.8238 97.0739 17.5875 97.5669 16.5702C98.0599 15.553 98.7524 14.7783 99.6445 14.2462C100.537 13.7141 101.577 13.4481 102.767 13.4481ZM102.767 15.5256C101.898 15.5256 101.194 15.8073 100.654 16.3707C100.122 16.9341 99.8089 17.7596 99.7149 18.8473H105.631C105.623 18.1978 105.514 17.6227 105.302 17.1219C105.099 16.6211 104.786 16.2299 104.363 15.9482C103.948 15.6665 103.416 15.5256 102.767 15.5256Z" fill="#102E7A"/>
<path d="M87.9865 13.4481C89.5281 13.4481 90.7645 14.0115 91.6958 15.1383C92.6348 16.2651 93.1043 17.9396 93.1043 20.1619C93.1043 21.633 92.8852 22.8733 92.447 23.8827C92.0166 24.8843 91.4101 25.6434 90.6276 26.1598C89.8529 26.6684 88.9491 26.9227 87.9161 26.9227C87.2588 26.9227 86.6875 26.8367 86.2024 26.6645C85.7172 26.4924 85.3024 26.2694 84.9581 25.9955C84.6138 25.7138 84.3243 25.4086 84.0895 25.0799H83.9252C83.9643 25.3929 83.9995 25.7412 84.0308 26.1246C84.0699 26.5002 84.0895 26.8445 84.0895 27.1575V32.4511H81.3193V13.6945H83.573L83.9604 15.4904H84.0895C84.3321 15.1226 84.6255 14.7822 84.9699 14.4692C85.322 14.1562 85.7446 13.9097 86.2376 13.7298C86.7384 13.542 87.3214 13.4481 87.9865 13.4481ZM87.247 15.7017C86.488 15.7017 85.8776 15.8543 85.4159 16.1594C84.962 16.4568 84.6295 16.9067 84.4182 17.5092C84.2147 18.1118 84.1052 18.8669 84.0895 19.7746V20.1619C84.0895 21.1244 84.1873 21.9421 84.383 22.6151C84.5864 23.2802 84.919 23.7888 85.3807 24.1409C85.8502 24.4852 86.4841 24.6574 87.2823 24.6574C87.9552 24.6574 88.5108 24.4735 88.9491 24.1057C89.3951 23.738 89.7277 23.2137 89.9468 22.5329C90.1659 21.8521 90.2755 21.0501 90.2755 20.1267C90.2755 18.726 90.025 17.6384 89.5242 16.8637C89.0312 16.089 88.2722 15.7017 87.247 15.7017Z" fill="#102E7A"/>
<path d="M77.3542 13.6954V26.6888H74.5957V13.6954H77.3542ZM75.9926 8.71866C76.4151 8.71866 76.779 8.83212 77.0842 9.05905C77.3972 9.28597 77.5537 9.67722 77.5537 10.2328C77.5537 10.7806 77.3972 11.1718 77.0842 11.4066C76.779 11.6335 76.4151 11.7469 75.9926 11.7469C75.5543 11.7469 75.1826 11.6335 74.8774 11.4066C74.5801 11.1718 74.4314 10.7806 74.4314 10.2328C74.4314 9.67722 74.5801 9.28597 74.8774 9.05905C75.1826 8.83212 75.5543 8.71866 75.9926 8.71866Z" fill="#102E7A"/>
<path d="M65.5744 13.4481C67.116 13.4481 68.3524 14.0115 69.2836 15.1383C70.2227 16.2651 70.6922 17.9396 70.6922 20.1619C70.6922 21.633 70.4731 22.8733 70.0349 23.8827C69.6045 24.8843 68.998 25.6434 68.2155 26.1598C67.4408 26.6684 66.5369 26.9227 65.504 26.9227C64.8467 26.9227 64.2754 26.8367 63.7902 26.6645C63.3051 26.4924 62.8903 26.2694 62.546 25.9955C62.2017 25.7138 61.9122 25.4086 61.6774 25.0799H61.5131C61.5522 25.3929 61.5874 25.7412 61.6187 26.1246C61.6578 26.5002 61.6774 26.8445 61.6774 27.1575V32.4511H58.9072V13.6945H61.1609L61.5483 15.4904H61.6774C61.92 15.1226 62.2134 14.7822 62.5578 14.4692C62.9099 14.1562 63.3325 13.9097 63.8255 13.7298C64.3263 13.542 64.9093 13.4481 65.5744 13.4481ZM64.8349 15.7017C64.0759 15.7017 63.4655 15.8543 63.0038 16.1594C62.5499 16.4568 62.2174 16.9067 62.0061 17.5092C61.8026 18.1118 61.6931 18.8669 61.6774 19.7746V20.1619C61.6774 21.1244 61.7752 21.9421 61.9709 22.6151C62.1743 23.2802 62.5069 23.7888 62.9686 24.1409C63.4381 24.4852 64.072 24.6574 64.8701 24.6574C65.5431 24.6574 66.0987 24.4735 66.5369 24.1057C66.983 23.738 67.3156 23.2137 67.5347 22.5329C67.7538 21.8521 67.8633 21.0501 67.8633 20.1267C67.8633 18.726 67.6129 17.6384 67.1121 16.8637C66.6191 16.089 65.8601 15.7017 64.8349 15.7017Z" fill="#102E7A"/>
<path d="M50.5629 13.4489C52.0262 13.4489 53.1648 13.8284 53.9786 14.5874C54.8003 15.3386 55.2111 16.5476 55.2111 18.2143V26.6888H52.4527V18.7308C52.4527 17.7213 52.2453 16.9662 51.8306 16.4654C51.4158 15.9568 50.7742 15.7025 49.9056 15.7025C48.6457 15.7025 47.7692 16.0898 47.2762 16.8645C46.7911 17.6392 46.5485 18.7621 46.5485 20.2332V26.6888H43.79V13.6954H45.9381L46.3255 15.456H46.478C46.7598 15.0021 47.108 14.6304 47.5227 14.3409C47.9453 14.0436 48.4148 13.8206 48.9313 13.6719C49.4556 13.5232 49.9995 13.4489 50.5629 13.4489Z" fill="#102E7A"/>
</svg>
