<svg width="120" height="40" viewBox="0 0 120 40" fill="none" xmlns="http://www.w3.org/2000/svg">
<path d="M20.001 0C31.0471 7.21533e-05 40.002 8.95435 40.002 20C40.002 31.0457 31.0471 39.9999 20.001 40C8.95482 40 0 31.0457 0 20C0 8.9543 8.95482 0 20.001 0ZM34.4229 13.4854C33.2324 13.4854 32.1907 13.7518 31.2979 14.2842C30.4049 14.8167 29.7113 15.5923 29.2178 16.6104C28.7243 17.6284 28.4776 18.8657 28.4775 20.3223C28.4775 21.7865 28.7477 23.0123 29.2881 23.999C29.8364 24.9858 30.5931 25.7302 31.5566 26.2314C32.5279 26.7247 33.6521 26.9717 34.9287 26.9717C35.8685 26.9717 36.6751 26.9007 37.3486 26.7598C38.0222 26.6188 38.3929 26.4235 39.043 26.1182L39.1992 25.5889L39.3438 25.0723L39.4326 24.7197L39.5527 24.2002L39.6328 23.7998C38.9278 24.1131 37.9441 24.399 37.2783 24.5635C36.6204 24.7201 35.8761 24.7979 35.0459 24.7979C33.8789 24.7978 32.9704 24.4575 32.3203 23.7764C31.6781 23.0951 31.341 22.1239 31.3096 20.8633H39.9746L39.9922 20.3652V19.4805C39.9701 18.2805 39.7697 17.1115 39.3232 16.2344C38.8767 15.3573 38.2376 14.6799 37.4072 14.2021C36.577 13.7246 35.582 13.4854 34.4229 13.4854ZM20.1855 13.4404C18.6833 13.4404 17.4741 13.7414 16.5586 14.3438C15.651 14.9384 15.1964 15.8109 15.1963 16.9609C15.1963 17.6885 15.3414 18.2874 15.6309 18.7568C15.9204 19.2184 16.3469 19.6138 16.9102 19.9424C17.4736 20.271 18.1666 20.6001 18.9883 20.9287C19.8254 21.2651 20.4593 21.5543 20.8896 21.7969C21.3279 22.0316 21.6247 22.2633 21.7812 22.4902C21.9455 22.7093 22.0283 22.9596 22.0283 23.2412C22.0283 23.7184 21.8287 24.1021 21.4297 24.3916C21.0306 24.6733 20.3765 24.8135 19.4688 24.8135C18.7803 24.8134 18.0489 24.7083 17.2744 24.4971C16.5075 24.2858 15.8145 24.0356 15.1963 23.7461V26.1289C15.7752 26.3949 16.3897 26.5896 17.0391 26.7148C17.6963 26.8479 18.4791 26.915 19.3867 26.915C20.537 26.915 21.5075 26.7661 22.2979 26.4688C23.0959 26.1636 23.7024 25.7176 24.1172 25.1309C24.5319 24.544 24.7393 23.8236 24.7393 22.9707C24.7392 22.2275 24.5874 21.6208 24.2822 21.1514C23.977 20.6819 23.538 20.2866 22.9668 19.9658C22.4035 19.6373 21.7344 19.3246 20.96 19.0273C20.1698 18.7144 19.5515 18.4525 19.1055 18.2412C18.6673 18.03 18.3577 17.8187 18.1777 17.6074C17.9978 17.3961 17.9082 17.1372 17.9082 16.832C17.9083 16.4253 18.0922 16.1126 18.46 15.8936C18.8355 15.6745 19.379 15.5645 20.0908 15.5645C20.7011 15.5645 21.2999 15.6512 21.8867 15.8232C22.4814 15.9875 23.0724 16.1989 23.6592 16.457L24.5283 14.3789C23.8475 14.0737 23.1506 13.843 22.4385 13.6865C21.7344 13.5223 20.9834 13.4405 20.1855 13.4404ZM34.4229 15.5645C35.073 15.5645 35.6063 15.7064 36.0215 15.9883C36.4441 16.2701 36.7573 16.6613 36.9609 17.1621C37.1724 17.6633 37.2822 18.2396 37.29 18.8896H31.3682C31.4622 17.8011 31.776 16.975 32.3086 16.4111C32.849 15.8474 33.5535 15.5645 34.4229 15.5645Z" fill="white"/>
<path d="M118.618 13.4482C118.837 13.4482 119.075 13.46 119.334 13.4835C119.592 13.5069 119.815 13.5382 120.003 13.5774L119.744 16.1596C119.58 16.1127 119.377 16.0774 119.134 16.054C118.899 16.0305 118.688 16.0188 118.5 16.0188C118.007 16.0188 117.538 16.1009 117.092 16.2652C116.646 16.4217 116.25 16.6643 115.906 16.993C115.562 17.3138 115.292 17.7168 115.096 18.2019C114.9 18.6871 114.803 19.2505 114.803 19.8921V26.6882H112.032V13.6947H114.192L114.568 15.9835H114.697C114.955 15.5219 115.276 15.0993 115.66 14.7159C116.043 14.3325 116.481 14.0273 116.974 13.8004C117.475 13.5656 118.023 13.4482 118.618 13.4482Z" fill="white"/>
<path d="M102.767 13.4482C103.925 13.4482 104.919 13.6869 105.748 14.1642C106.578 14.6416 107.216 15.3184 107.662 16.1948C108.108 17.0712 108.331 18.1198 108.331 19.3405V20.8194H99.6563C99.6876 22.0792 100.024 23.0495 100.666 23.7303C101.315 24.4111 102.223 24.7515 103.389 24.7515C104.218 24.7515 104.962 24.6732 105.619 24.5167C106.284 24.3524 106.969 24.1137 107.673 23.8007V26.0426C107.024 26.3478 106.363 26.5708 105.69 26.7116C105.017 26.8525 104.211 26.9229 103.272 26.9229C101.996 26.9229 100.873 26.6764 99.9028 26.1835C98.9402 25.6827 98.1851 24.9393 97.6373 23.9533C97.0974 22.9674 96.8274 21.7428 96.8274 20.2795C96.8274 18.824 97.0739 17.5877 97.5669 16.5704C98.0599 15.5532 98.7524 14.7785 99.6445 14.2464C100.537 13.7143 101.577 13.4482 102.767 13.4482ZM102.767 15.5258C101.898 15.5258 101.194 15.8075 100.654 16.3709C100.122 16.9343 99.8089 17.7598 99.7149 18.8475H105.631C105.623 18.198 105.514 17.6229 105.302 17.1221C105.099 16.6213 104.786 16.23 104.363 15.9483C103.948 15.6666 103.416 15.5258 102.767 15.5258Z" fill="white"/>
<path d="M87.9865 13.4482C89.5281 13.4482 90.7645 14.0116 91.6958 15.1384C92.6348 16.2652 93.1043 17.9398 93.1043 20.1621C93.1043 21.6332 92.8852 22.8735 92.447 23.8829C92.0166 24.8845 91.4101 25.6435 90.6276 26.16C89.8529 26.6686 88.9491 26.9229 87.9161 26.9229C87.2588 26.9229 86.6875 26.8369 86.2024 26.6647C85.7172 26.4925 85.3024 26.2695 84.9581 25.9957C84.6138 25.714 84.3243 25.4088 84.0895 25.0801H83.9252C83.9643 25.3931 83.9995 25.7413 84.0308 26.1248C84.0699 26.5004 84.0895 26.8447 84.0895 27.1577V32.4513H81.3193V13.6947H83.573L83.9604 15.4906H84.0895C84.3321 15.1228 84.6255 14.7824 84.9699 14.4694C85.322 14.1564 85.7446 13.9099 86.2376 13.7299C86.7384 13.5421 87.3214 13.4482 87.9865 13.4482ZM87.247 15.7018C86.488 15.7018 85.8776 15.8544 85.4159 16.1596C84.962 16.457 84.6295 16.9069 84.4182 17.5094C84.2147 18.112 84.1052 18.8671 84.0895 19.7748V20.1621C84.0895 21.1246 84.1873 21.9423 84.383 22.6153C84.5864 23.2804 84.919 23.789 85.3807 24.1411C85.8502 24.4854 86.4841 24.6576 87.2823 24.6576C87.9552 24.6576 88.5108 24.4737 88.9491 24.1059C89.3951 23.7381 89.7277 23.2139 89.9468 22.5331C90.1659 21.8523 90.2755 21.0502 90.2755 20.1269C90.2755 18.7262 90.025 17.6385 89.5242 16.8639C89.0312 16.0892 88.2722 15.7018 87.247 15.7018Z" fill="white"/>
<path d="M77.3542 13.6955V26.6889H74.5957V13.6955H77.3542ZM75.9926 8.71875C76.4151 8.71875 76.779 8.83221 77.0842 9.05914C77.3972 9.28606 77.5537 9.67731 77.5537 10.2329C77.5537 10.7806 77.3972 11.1719 77.0842 11.4066C76.779 11.6336 76.4151 11.747 75.9926 11.747C75.5543 11.747 75.1826 11.6336 74.8774 11.4066C74.5801 11.1719 74.4314 10.7806 74.4314 10.2329C74.4314 9.67731 74.5801 9.28606 74.8774 9.05914C75.1826 8.83221 75.5543 8.71875 75.9926 8.71875Z" fill="white"/>
<path d="M65.5744 13.4482C67.116 13.4482 68.3524 14.0116 69.2836 15.1384C70.2227 16.2652 70.6922 17.9398 70.6922 20.1621C70.6922 21.6332 70.4731 22.8735 70.0349 23.8829C69.6045 24.8845 68.998 25.6435 68.2155 26.16C67.4408 26.6686 66.5369 26.9229 65.504 26.9229C64.8467 26.9229 64.2754 26.8369 63.7902 26.6647C63.3051 26.4925 62.8903 26.2695 62.546 25.9957C62.2017 25.714 61.9122 25.4088 61.6774 25.0801H61.5131C61.5522 25.3931 61.5874 25.7413 61.6187 26.1248C61.6578 26.5004 61.6774 26.8447 61.6774 27.1577V32.4513H58.9072V13.6947H61.1609L61.5483 15.4906H61.6774C61.92 15.1228 62.2134 14.7824 62.5578 14.4694C62.9099 14.1564 63.3325 13.9099 63.8255 13.7299C64.3263 13.5421 64.9093 13.4482 65.5744 13.4482ZM64.8349 15.7018C64.0759 15.7018 63.4655 15.8544 63.0038 16.1596C62.5499 16.457 62.2174 16.9069 62.0061 17.5094C61.8026 18.112 61.6931 18.8671 61.6774 19.7748V20.1621C61.6774 21.1246 61.7752 21.9423 61.9709 22.6153C62.1743 23.2804 62.5069 23.789 62.9686 24.1411C63.4381 24.4854 64.072 24.6576 64.8701 24.6576C65.5431 24.6576 66.0987 24.4737 66.5369 24.1059C66.983 23.7381 67.3156 23.2139 67.5347 22.5331C67.7538 21.8523 67.8633 21.0502 67.8633 20.1269C67.8633 18.7262 67.6129 17.6385 67.1121 16.8639C66.6191 16.0892 65.8601 15.7018 64.8349 15.7018Z" fill="white"/>
<path d="M50.5629 13.4487C52.0262 13.4487 53.1648 13.8282 53.9786 14.5873C54.8003 15.3385 55.2111 16.5474 55.2111 18.2142V26.6887H52.4527V18.7306C52.4527 17.7212 52.2453 16.9661 51.8306 16.4653C51.4158 15.9566 50.7742 15.7023 49.9056 15.7023C48.6457 15.7023 47.7692 16.0897 47.2762 16.8644C46.7911 17.639 46.5485 18.7619 46.5485 20.233V26.6887H43.79V13.6952H45.9381L46.3255 15.4558H46.478C46.7598 15.002 47.108 14.6303 47.5227 14.3408C47.9453 14.0434 48.4148 13.8204 48.9313 13.6717C49.4556 13.5231 49.9995 13.4487 50.5629 13.4487Z" fill="white"/>
</svg>
